<?xml version="1.0" standalone="no"?>
<!DOCTYPE svg PUBLIC "-//W3C//DTD SVG 20010904//EN"
 "http://www.w3.org/TR/2001/REC-SVG-20010904/DTD/svg10.dtd">
<svg version="1.0" xmlns="http://www.w3.org/2000/svg"
 width="1536.000000pt" height="318.000000pt" viewBox="0 0 1536.000000 318.000000"
 preserveAspectRatio="xMidYMid meet">

<g transform="translate(0.000000,318.000000) scale(0.100000,-0.100000)"
fill="#000000" stroke="none">
<path d="M7044 2594 c-373 -62 -684 -344 -787 -712 -18 -66 -21 -103 -21 -252
0 -162 2 -182 28 -265 140 -458 559 -743 1038 -704 95 7 188 27 188 39 0 4
-65 69 -145 144 -145 135 -146 136 -193 136 -69 0 -155 24 -252 72 -68 33
-102 58 -171 127 -94 94 -144 179 -176 301 -23 85 -22 234 1 320 59 218 228
393 451 467 69 23 96 27 205 27 109 0 136 -4 205 -27 223 -74 392 -249 451
-467 20 -75 23 -244 6 -304 -6 -22 -10 -41 -8 -43 2 -2 78 63 169 143 l167
147 -7 41 c-20 133 -87 297 -168 411 -49 69 -179 197 -245 242 -210 142 -481
200 -736 157z"/>
<path d="M7173 1740 c-70 -31 -107 -115 -84 -189 9 -31 138 -163 688 -708 373
-368 689 -677 703 -686 37 -26 128 -23 170 6 70 46 93 138 54 209 -28 51
-1347 1349 -1392 1370 -48 23 -87 22 -139 -2z"/>
</g>
</svg>
